#!OML:ASF H:\Terrain\Walking\May29\JustinRory\Justin.ASF
:FULLY-SPECIFIED
:DEGREES
339
root 6.83311 17.6153 12.2025 -175.832 7.95559 -174.419
lowerback 5.88718 -2.08467 -1.03427
upperback 1.13873 -2.69789 2.3696
thorax -1.96121 -1.30009 3.21985
lowerneck -10.4313 -7.5602 -12.3721
upperneck 10.2181 -8.9494 5.76814
head 5.61249 -4.47757 3.03508
rclavicle 2.16178e-014 -1.09332e-014
rhumerus -26.398 -4.33512 -67.937
rradius 62.8614
rwrist -18.8944
rhand -18.4491 32.6535
rfingers 7.12502
rthumb 7.83692 2.81875
lclavicle 2.16178e-014 -1.09332e-014
lhumerus -25.5917 17.2526 74.3177
lradius 53.4893
lwrist 19.3699
lhand 0.50941 42.8586
lfingers 7.12502
lthumb 26.0782 71.0884
rfemur -22.3282 1.5759 16.8848
rtibia 30.0243
rfoot -7.27525 -2.71503
rtoes 2.8178
lfemur 2.1394 0.775985 -11.3308
ltibia 29.7957
lfoot -21.258 9.71438
ltoes -27.2786
340
root 6.87881 17.6279 12.1601 -176.071 8.19107 -174.365
lowerback 6.28664 -2.01836 -1.03155
upperback 1.10921 -2.60026 2.45096
thorax -2.21684 -1.24504 3.31369
lowerneck -11.0207 -7.31286 -12.5154
upperneck 10.7049 -8.54745 5.91566
head 5.84057 -4.27324 3.12315
rclavicle -7.19849e-014 1.70955e-014
rhumerus -26.0358 -2.2461 -69.9356
rradius 62.9869
rwrist -16.3505
rhand -18.5387 33.5947
rfingers 7.12502
rthumb 7.75043 3.75673
lclavicle -7.19849e-014 1.70955e-014
lhumerus -25.3792 15.2104 76.7393
lradius 53.3921
lwrist 18.3802
lhand 0.0110099 42.6684
lfingers 7.12502
lthumb 25.6009 70.9676
rfemur -22.0545 1.82783 17.1163
rtibia 30.2903
rfoot -7.51322 -2.73182
rtoes 1.36088
lfemur 2.16634 0.933338 -11.1133
ltibia 30.5501
lfoot -20.4268 9.82159
ltoes -30.9842
341
root 6.9287 17.6474 12.11 -176.104 8.22536 -174.937
lowerback 6.42102 -2.00286 -1.65498
upperback 0.861077 -2.63602 2.40878
thorax -2.51907 -1.25757 3.63685
lowerneck -11.2039 -7.0583 -12.2194
upperneck 10.9585 -8.16142 5.43672
head 5.88277 -4.1045 2.95816
rclavicle 1.36664e-014 8.15017e-015
rhumerus -26.1065 0.304138 -71.9431
rradius 63.4321
rwrist -13.9469
rhand -18.8766 34.2554
rfingers 7.12502
rthumb 7.42431 4.40569
lclavicle 1.36664e-014 8.15017e-015
lhumerus -25.3203 12.9805 79.0964
lradius 53.2202
lwrist 17.1911
lhand -0.0696705 42.8426
lfingers 7.12502
lthumb 25.5236 71.1529
rfemur -22.0155 1.89771 16.6733
rtibia 30.5187
rfoot -7.71641 -2.86995
rtoes -1.11939
lfemur 1.86873 0.734129 -11.6038
ltibia 31.3776
lfoot -20.0155 9.8359
ltoes -30.2804
342
root 6.98559 17.6562 12.0572 -176.043 8.15914 -175.236
lowerback 6.09583 -1.99771 -1.95835
upperback 0.91342 -2.65588 2.32898
thorax -2.27178 -1.27272 3.71059
lowerneck -11.6993 -6.86918 -11.7986
upperneck 11.1409 -7.88726 5.19031
head 5.97096 -3.96602 2.82774
rclavicle -2.49475e-014 1.17283e-014
rhumerus -25.8223 2.82602 -74.1444
rradius 63.7937
rwrist -11.3773
rhand -19.755 34.9844
rfingers 7.12502
rthumb 6.57633 5.10654
lclavicle -2.49475e-014 1.17283e-014
lhumerus -24.7491 10.3734 81.3694
lradius 52.9005
lwrist 15.8758
lhand -0.407778 42.5664
lfingers 7.12502
lthumb 25.1997 70.9226
rfemur -21.991 2.03266 16.521
rtibia 30.7565
rfoot -7.91829 -3.04497
rtoes -1.35478
lfemur 1.46013 0.507339 -11.7288
ltibia 32.2187
lfoot -19.9146 9.59275
ltoes -29.1205
343
root 7.04088 17.6531 12.0074 -175.979 7.91467 -174.374
lowerback 5.31819 -2.0583 -1.01486
upperback 1.44977 -2.6508 2.52065
thorax -1.32017 -1.28208 3.32881
lowerneck -12.3671 -6.63715 -11.5782
upperneck 11.0458 -7.55746 5.31829
head 6.01937 -3.77869 2.85199
rclavicle -1.80397e-014 -1.05356e-014
rhumerus -25.0665 5.40199 -76.1351
rradius 64.2692
rwrist -8.72368
rhand -20.6169 35.3208
rfingers 7.12502
rthumb 5.74422 5.41862
lclavicle -1.80397e-014 -1.05356e-014
lhumerus -23.5779 7.33137 83.7517
lradius 52.4743
lwrist 14.223
lhand -1.70867 41.8342
lfingers 7.12502
lthumb 23.9528 70.36
rfemur -21.7643 2.17472 17.6497
rtibia 30.9657
rfoot -8.24325 -3.34156
rtoes -0.832718
lfemur 1.12983 0.420991 -10.4657
ltibia 33.1534
lfoot -19.7512 9.13614
ltoes -30.4009
344
root 7.09089 17.6435 11.9625 -176.057 7.84894 -173.97
lowerback 6.12751 -2.05784 -0.461367
upperback 0.856482 -2.6094 2.58084
thorax -2.40808 -1.24931 3.12842
lowerneck -12.1811 -6.16186 -11.0341
upperneck 11.5724 -6.97668 4.90897
head 6.07095 -3.50916 2.69942
rclavicle -1.79155e-014 -1.98785e-016
rhumerus -26.1455 8.42646 -78.0974
rradius 64.9636
rwrist -6.35079
rhand -20.0647 34.9979
rfingers 7.12502
rthumb 6.27732 5.11094
lclavicle -1.79155e-014 -1.98785e-016
lhumerus -24.4585 3.76383 85.8829
lradius 52.3604
lwrist 12.2958
lhand -3.24856 41.5032
lfingers 7.12502
lthumb 22.4754 70.2153
rfemur -21.4633 2.1724 18.2953
rtibia 31.0255
rfoot -8.37769 -3.44693
rtoes -2.45602
lfemur 0.845715 0.431509 -9.75442
ltibia 34.2303
lfoot -19.4125 8.85201
ltoes -32.2766
